<svg version="1.1" xmlns="http://www.w3.org/2000/svg" xmlns:xlink="http://www.w3.org/1999/xlink" width="32px" height="32px" viewBox="0,0,256,256"><g fill="#717171" fill-rule="nonzero" stroke="none" stroke-width="1" stroke-linecap="butt" stroke-linejoin="miter" stroke-miterlimit="10" stroke-dasharray="" stroke-dashoffset="0" font-family="none" font-weight="none" font-size="none" text-anchor="none" style="mix-blend-mode: normal"><g transform="scale(8,8)"><path d="M14.19922,0.96484c-2.70373,-0.07642 -5.20955,1.41167 -6.43635,3.82227c-1.2268,2.41059 -0.95503,5.31227 0.69807,7.45312c-4.55402,2.14482 -7.4605,6.72595 -7.46094,11.75977v2c0,2.76142 2.23858,5 5,5h17c4.41516,0.09193 8.0701,-3.41031 8.16657,-7.82538c0.09647,-4.41506 -3.402,-8.07361 -7.81696,-8.17462c-1.09042,-1.14556 -2.38204,-2.08102 -3.81055,-2.75977c1.60923,-2.08399 1.91293,-4.89472 0.78597,-7.27435c-1.12695,-2.37963 -3.4939,-3.92559 -6.12582,-4.00104zM14,3c2.76142,0 5,2.23858 5,5c0,2.76142 -2.23858,5 -5,5c-2.76142,0 -5,-2.23858 -5,-5c0,-2.76142 2.23858,-5 5,-5zM10,13.75977c2.38838,1.64149 5.54131,1.64149 7.92969,0c0.99329,0.38245 1.92356,0.91178 2.75977,1.57031c-2.78289,0.83354 -4.89521,3.11016 -5.51836,5.94758c-0.62314,2.83742 0.34084,5.78965 2.51836,7.71258l-11.68945,0.00977c-1.65685,0 -3,-1.34315 -3,-3v-2c0.00277,-4.52897 2.78108,-8.59334 7,-10.24023zM22.75,17.00586c1.63314,-0.06811 3.22338,0.53303 4.40308,1.66444c1.1797,1.13141 1.84675,2.69514 1.84692,4.3297c0,3.31371 -2.68629,6 -6,6c-3.25926,-0.00798 -5.91609,-2.61638 -5.98401,-5.87495c-0.06792,-3.25856 2.47791,-5.97541 5.73401,-6.11919zM22.9707,19c-0.54081,0.01585 -0.97094,0.45896 -0.9707,1v2h-2c-0.55228,0 -1,0.44772 -1,1c0,0.55228 0.44772,1 1,1h2v2c0,0.55228 0.44772,1 1,1c0.55228,0 1,-0.44772 1,-1v-2h2c0.55228,0 1,-0.44772 1,-1c0,-0.55228 -0.44772,-1 -1,-1h-2v-2c0.00012,-0.27037 -0.10925,-0.52927 -0.30317,-0.71767c-0.19392,-0.1884 -0.45587,-0.29025 -0.72612,-0.28233z"></path></g></g></svg>