<svg version="1.1" xmlns="http://www.w3.org/2000/svg" xmlns:xlink="http://www.w3.org/1999/xlink" width="50px" height="50px" viewBox="0,0,256,256"><g fill="#ffffff" fill-rule="nonzero" stroke="none" stroke-width="1" stroke-linecap="butt" stroke-linejoin="miter" stroke-miterlimit="10" stroke-dasharray="" stroke-dashoffset="0" font-family="none" font-weight="none" font-size="none" text-anchor="none" style="mix-blend-mode: normal"><g transform="scale(5.12,5.12)"><path d="M25,2c-12.69141,0 -23,10.30859 -23,23c0,12.69141 10.30859,23 23,23c12.69141,0 23,-10.30859 23,-23c0,-12.69141 -10.30859,-23 -23,-23zM25,4c11.60938,0 21,9.39063 21,21c0,11.60938 -9.39062,21 -21,21c-11.60937,0 -21,-9.39062 -21,-21c0,-11.60937 9.39063,-21 21,-21zM27.875,14c-0.22266,0.02344 -0.43359,0.125 -0.59375,0.28125l-10,10c-0.19531,0.1875 -0.30469,0.44922 -0.30469,0.71875c0,0.26953 0.10938,0.53125 0.30469,0.71875l10,10c0.39844,0.39844 1.03906,0.39844 1.4375,0c0.39844,-0.39844 0.39844,-1.03906 0,-1.4375l-9.28125,-9.28125l9.28125,-9.28125c0.32422,-0.30078 0.41016,-0.77734 0.21484,-1.17187c-0.19141,-0.39844 -0.625,-0.61719 -1.05859,-0.54687z"></path></g></g></svg>