<svg version="1.1" xmlns="http://www.w3.org/2000/svg" xmlns:xlink="http://www.w3.org/1999/xlink" width="24px" height="24px" viewBox="0,0,256,256"><g fill="#ffffff" fill-rule="nonzero" stroke="none" stroke-width="1" stroke-linecap="butt" stroke-linejoin="miter" stroke-miterlimit="10" stroke-dasharray="" stroke-dashoffset="0" font-family="none" font-weight="none" font-size="none" text-anchor="none" style="mix-blend-mode: normal"><g transform="scale(10.66667,10.66667)"><path d="M20.69922,14.89844c-0.09766,0.10156 -0.09766,0.10156 -0.19922,0.10156c-0.10156,0 -0.5,0 -0.69922,-0.19922c-0.19922,-0.10156 -0.5,-0.40234 -0.80078,-0.60156c-0.30078,-0.19922 -1.30078,-0.89844 -1.89844,-1.19922c-0.60156,-0.30078 -0.90234,-0.39844 -1,-0.89844c-0.10156,-0.5 -0.10156,-2.90234 -0.10156,-2.90234c0,0 -1,-0.19922 -1.80078,-0.30078c-0.80078,-0.09766 -1.89844,-0.19922 -3.09766,-0.09766c-1.20312,0.09766 -2.30078,0.19922 -3.40234,0.59766c0,1.40234 0,2.60156 0,2.90234c0,0.30078 0,0.39844 -0.39844,0.59766c-0.40234,0.20313 -1.10156,0.5 -1.60156,0.90234c-0.5,0.39844 -1.09766,0.80078 -1.39844,1.09766c-0.40234,0.20313 -0.40234,0.10156 -0.60156,0.10156c-0.19922,0 -0.5,-0.10156 -0.59766,-0.19922c-0.10156,0 -0.20312,-0.19922 -0.90234,-0.90234c-0.59766,-0.59766 -1.5,-1.5 -1.69922,-1.69922c-0.19922,-0.19922 -0.19922,-0.19922 -0.30078,-0.39844l-0.19922,-0.40234c0,-0.09766 0.10156,-0.5 0.30078,-0.69922c0.19922,-0.19922 0.89844,-0.80078 1.39844,-1.19922c0.5,-0.39844 2,-1.30078 2.60156,-1.60156c0.59766,-0.29687 2.59766,-1.29687 5.5,-1.69922c3,-0.39844 5.89844,0.10156 7.89844,0.69922c2,0.70313 3.90234,1.90234 4.80078,2.5c0.89844,0.60156 1.19922,0.90234 1.30078,1.20313c0.19922,0.29688 0.09766,0.59766 0.09766,0.79688c-0.09766,0.20313 -0.19922,0.40234 -0.39844,0.60156c-0.19922,0.19922 -0.69922,0.69922 -1.39844,1.39844c-0.60156,0.70313 -1.40234,1.5 -1.40234,1.5z"></path></g></g></svg>