<svg version="1.1" xmlns="http://www.w3.org/2000/svg" xmlns:xlink="http://www.w3.org/1999/xlink" width="50px" height="50px" viewBox="0,0,256,256"><g fill="#ffffff" fill-rule="nonzero" stroke="none" stroke-width="1" stroke-linecap="butt" stroke-linejoin="miter" stroke-miterlimit="10" stroke-dasharray="" stroke-dashoffset="0" font-family="none" font-weight="none" font-size="none" text-anchor="none" style="mix-blend-mode: normal"><g transform="scale(5.12,5.12)"><path d="M11.55078,47c-0.5625,0 -1.30469,-0.14453 -2.09375,-0.71094c-0.0625,-0.04687 -6.45703,-4.72656 -6.45703,-7.28906l0.00781,-0.15234c0.29688,-6.05078 4.86719,-13.53516 13.58594,-22.25391c8.71484,-8.71484 16.19922,-13.28516 22.25,-13.58594l0.10156,-0.00391c0.02734,0 0.05469,-0.00391 0.08203,-0.00391c2.61719,0 7.21484,6.39453 7.26172,6.45703c1.18359,1.66016 0.75391,3.51563 -0.32031,4.28125c-0.69922,0.52734 -8.08984,5.36719 -8.99219,5.90625c-0.96875,0.55469 -2.29687,0.44922 -3.48047,-0.26172c-0.70312,-0.38281 -2.89453,-1.63672 -3.91016,-2.22266c-0.90625,0.625 -3.125,2.30469 -6.58203,5.82813c-3.46875,3.46484 -5.18359,5.69141 -5.83594,6.60547c0.58984,1.02344 1.83984,3.21094 2.23438,3.9375c0.70703,1.29297 0.78906,2.62891 0.21875,3.48438c-0.50781,0.84766 -5.4375,8.33203 -5.88281,8.94922c-0.39844,0.5625 -1.07812,0.93359 -1.85547,1.01563c-0.10156,0.01172 -0.21094,0.01953 -0.33203,0.01953z"></path></g></g></svg>