<svg version="1.1" xmlns="http://www.w3.org/2000/svg" xmlns:xlink="http://www.w3.org/1999/xlink" width="50px" height="50px" viewBox="0,0,256,256"><g fill="#ffc107" fill-rule="nonzero" stroke="none" stroke-width="1" stroke-linecap="butt" stroke-linejoin="miter" stroke-miterlimit="10" stroke-dasharray="" stroke-dashoffset="0" font-family="none" font-weight="none" font-size="none" text-anchor="none" style="mix-blend-mode: normal"><g transform="scale(5.12,5.12)"><path d="M0.90625,-0.03125c-0.04297,0.00781 -0.08594,0.01953 -0.125,0.03125c-0.375,0.06641 -0.67578,0.33984 -0.78125,0.70313c-0.10547,0.36719 0.00391,0.75781 0.28125,1.01563l48,48c0.39844,0.39844 1.03906,0.39844 1.4375,0c0.39844,-0.39844 0.39844,-1.03906 0,-1.4375l-12.71875,-12.71875v-21.5625c0,-2.80078 -2.19922,-5 -5,-5h-21.5625l-8.71875,-8.71875c-0.20703,-0.22266 -0.50781,-0.33594 -0.8125,-0.3125zM5,9c-2.69922,0 -5,2.30078 -5,5v22c0,2.80078 2.19922,5 5,5h27c1.39844,0 2.60156,-0.60547 3.5,-1.40625zM50,12.3125l-11,5.9375v13.5l11,5.9375z"></path></g></g></svg>