<svg version="1.1" xmlns="http://www.w3.org/2000/svg" xmlns:xlink="http://www.w3.org/1999/xlink" width="50px" height="50px" viewBox="0,0,256,256"><g fill="#ff2507" fill-rule="nonzero" stroke="none" stroke-width="1" stroke-linecap="butt" stroke-linejoin="miter" stroke-miterlimit="10" stroke-dasharray="" stroke-dashoffset="0" font-family="none" font-weight="none" font-size="none" text-anchor="none" style="mix-blend-mode: normal"><g transform="scale(5.12,5.12)"><path d="M0.90625,-0.03125c-0.04297,0.00781 -0.08594,0.01953 -0.125,0.03125c-0.375,0.06641 -0.67578,0.33984 -0.78125,0.70313c-0.10547,0.36719 0.00391,0.75781 0.28125,1.01563l48,48c0.39844,0.39844 1.03906,0.39844 1.4375,0c0.39844,-0.39844 0.39844,-1.03906 0,-1.4375l-6.28125,-6.28125h0.875c3.10156,0 5.6875,-2.58594 5.6875,-5.6875v-22.625c0,-3.10156 -2.58594,-5.6875 -5.6875,-5.6875h-7.71875l-1.59375,-2.59375c-0.89844,-1.5 -2.51172,-2.40625 -4.3125,-2.40625h-11.375c-1.69922,0 -3.41406,0.90625 -4.3125,2.40625l-1.59375,2.59375h-3.96875l-7.71875,-7.71875c-0.20703,-0.22266 -0.50781,-0.33594 -0.8125,-0.3125zM3.8125,8.3125c-2.19922,0.80078 -3.8125,2.875 -3.8125,5.375v22.625c0,3.10156 2.58594,5.6875 5.6875,5.6875h31.8125l-5.875,-5.875c-1.98437,1.17578 -4.25,1.875 -6.625,1.875c-7.19922,0 -12.99219,-5.80078 -13.09375,-13c0,-2.5 0.70703,-4.6875 1.90625,-6.6875zM25,12c7.19922,0 13,5.80078 13,13c0,3.18359 -1.21094,6.14063 -3.1875,8.375l-1.4375,-1.4375c1.61328,-1.94141 2.625,-4.34375 2.625,-7.03125c0,-6.10156 -4.89844,-11 -11,-11c-2.67969,0 -5.15234,0.98828 -7.0625,2.59375l-1.375,-1.375c2.29297,-1.91406 5.25391,-3.125 8.4375,-3.125zM25,16.5c4.69922,0 8.5,3.80078 8.5,8.5c0,1.97656 -0.69141,3.79688 -1.8125,5.25l-1.4375,-1.4375c0.75781,-1.06641 1.25,-2.35937 1.25,-3.8125c0,-3.60156 -2.89844,-6.5 -6.5,-6.5c-1.46484,0 -2.77344,0.44531 -3.84375,1.21875l-1.40625,-1.40625c1.45313,-1.12109 3.27344,-1.8125 5.25,-1.8125zM15.3125,19.8125c-0.80078,1.5 -1.3125,3.28906 -1.3125,5.1875c0,6.10156 4.89844,11 11,11c1.87109,0 3.63672,-0.5 5.125,-1.375l-1.8125,-1.8125c-1,0.5 -2.11328,0.6875 -3.3125,0.6875c-4.69922,0 -8.49219,-3.79297 -8.59375,-8.59375c0,-1.10156 0.28906,-2.3125 0.6875,-3.3125zM18.6875,23.1875c-0.19922,0.60156 -0.28125,1.21094 -0.28125,1.8125c0,3.60156 2.89844,6.5 6.5,6.5c0.60156,0 1.17969,-0.11328 1.78125,-0.3125z"></path></g></g></svg>