<svg version="1.1" xmlns="http://www.w3.org/2000/svg" xmlns:xlink="http://www.w3.org/1999/xlink" width="30px" height="30px" viewBox="0,0,256,256"><g fill="#ffce58" fill-rule="nonzero" stroke="none" stroke-width="1" stroke-linecap="butt" stroke-linejoin="miter" stroke-miterlimit="10" stroke-dasharray="" stroke-dashoffset="0" font-family="none" font-weight="none" font-size="none" text-anchor="none" style="mix-blend-mode: normal"><g transform="scale(8.53333,8.53333)"><path d="M10.82813,5c-1.811,0 -3.54713,0.719 -4.82812,2h-2v13h0.60938c1.473,0 2.82644,0.80847 3.52344,2.10547l2.36523,4.4043l0.50195,3.49023h1c3,0 3,-2.749 3,-5c0,-0.734 -1,-4 -1,-4h9.5c1.38071,0 2.5,-1.11929 2.5,-2.5c-0.00092,-0.78758 -0.37292,-1.52868 -1.00391,-2c0.63099,-0.47132 1.00298,-1.21242 1.00391,-2c-0.00125,-1.04517 -0.65254,-1.97925 -1.63281,-2.3418c0.40665,-0.45673 0.63178,-1.04668 0.63281,-1.6582c-0.00013,-1.18788 -0.83612,-2.21164 -2,-2.44922v-1.05078c0,-1.10457 -0.89543,-2 -2,-2z"></path></g></g></svg>