<svg version="1.1" xmlns="http://www.w3.org/2000/svg" xmlns:xlink="http://www.w3.org/1999/xlink" width="512px" height="512px" viewBox="0,0,256,256"><g fill="#ffc107" fill-rule="nonzero" stroke="none" stroke-width="1" stroke-linecap="butt" stroke-linejoin="miter" stroke-miterlimit="10" stroke-dasharray="" stroke-dashoffset="0" font-family="none" font-weight="none" font-size="none" text-anchor="none" style="mix-blend-mode: normal"><g transform="scale(0.5,0.5)"><path d="M255.89648,114.37305c-1.95261,0.0269 -3.81752,0.81533 -5.19726,2.19726l-18.78906,18.79883c-12.32211,12.26661 -21.93578,26.98019 -28.22071,43.19141c-10.05653,-15.0601 -23.79443,-27.30077 -39.91015,-35.56055l-20.24024,-10.33984c-2.33398,-1.19725 -5.12421,-1.08626 -7.35572,0.29259c-2.23151,1.37886 -3.57906,3.82463 -3.55248,6.44764l0.51953,63.40039l-118.53125,-35c-2.26867,-0.66825 -4.71963,-0.22726 -6.61309,1.18986c-1.89346,1.41712 -3.00757,3.64432 -3.00605,6.00936v132.41016c0.00541,25.33597 11.01113,49.42134 30.16243,66.00867c19.1513,16.58732 44.56108,24.04215 69.63835,20.43078l0.58008,-0.10938l56.78906,-12.74023c12.58492,-2.80462 25.75749,0.43217 35.60938,8.75c13.3824,11.26943 33.15887,10.44011 45.55078,-1.91016l7.60937,-7.64062c1.33575,-1.35327 3.15909,-2.11329 5.06055,-2.10938c1.89968,0.00497 3.71975,0.76362 5.06055,2.10938l7.60937,7.64062c12.39804,12.33628 32.16345,13.16514 45.55078,1.91016c9.8555,-8.31076 23.02454,-11.54668 35.60938,-8.75l56.78906,12.7793l0.58008,0.11132c25.08436,3.61238 50.50103,-3.8477 69.65385,-20.44421c19.15281,-16.59651 30.15342,-40.69312 30.14693,-66.03625v-132.41016c0,-2.36068 -1.11146,-4.58359 -3,-6c-1.89198,-1.41727 -4.342,-1.85819 -6.60938,-1.18945l-115.63085,34.11914l0.50976,-62.53907c0.02694,-2.62357 -1.32088,-5.06998 -3.55298,-6.44896c-2.2321,-1.37898 -5.02303,-1.48947 -7.35717,-0.29127l-20.24024,10.34961c-17.12716,8.77903 -31.55214,22.03961 -41.73828,38.36914c-6.24019,-17.30925 -16.24059,-33.01959 -29.28125,-46l-18.79883,-18.79883c-1.43044,-1.43271 -3.37994,-2.22533 -5.4043,-2.19726zM255.96094,132.41016l13.5,13.5c20.6724,20.56307 32.2598,48.54134 32.17968,77.69922c0.00042,0.63842 0.08447,1.27403 0.25,1.89062l-3.50976,1c-15.79567,4.68506 -30.29831,12.94928 -42.38086,24.15039c-12.09728,-11.19279 -26.61367,-19.44385 -42.41992,-24.11133l-3.50977,-1c0.16537,-0.61596 0.24941,-1.2509 0.25,-1.88867c-0.00233,-7.96504 0.85219,-15.90721 2.54883,-23.68945c0.12007,-0.38981 0.21082,-0.78806 0.27148,-1.19141c4.61123,-20.03813 14.79624,-38.3633 29.37891,-52.85937h-0.03906c5.24,-5.26 10.00047,-10.06 13.48047,-13.5zM147.68945,151.63086l9.23047,4.70898c17.89824,9.17298 32.26547,24.00092 40.86914,42.17969c-1.50829,7.45653 -2.33785,15.03438 -2.47851,22.64063l-47.16016,-13.92969zM367.13086,151.63086l-0.45117,54.73828l-50.07031,14.79102c-0.11394,-6.24827 -0.69564,-12.47924 -1.74024,-18.64063c0.46164,-0.54558 0.84249,-1.15467 1.13086,-1.80859c8.4638,-19.15866 23.25752,-34.82471 41.90039,-44.3711zM20,185l189.33984,55.91016c15.74522,4.65008 29.96205,13.42266 41.17969,25.41015c1.42161,1.51217 3.40499,2.36956 5.48047,2.36914c2.07548,0.00042 4.05886,-0.85697 5.48047,-2.36914c11.21825,-11.98674 25.43487,-20.75917 41.17969,-25.41015l189.33984,-55.91016v122.41016c-0.01112,20.92973 -9.0878,40.82852 -24.88583,54.55718c-15.79803,13.72866 -36.76835,19.94103 -57.49503,17.03266l-56.48828,-12.71094c-17.18098,-3.82415 -35.16208,0.59653 -48.61133,11.95117c-7.41913,6.22847 -18.36549,5.76411 -25.23047,-1.07031l-7.59961,-7.63086c-4.16479,-4.1543 -9.80696,-6.48758 -15.68945,-6.48828c-5.88844,-0.01279 -11.53624,2.33554 -15.67969,6.51953l-7.62109,7.64063c-6.85987,6.83608 -17.80529,7.29977 -25.21875,1.06836c-10.17889,-8.58934 -23.07199,-13.29416 -36.39063,-13.2793c-4.11129,0.00007 -8.20989,0.45598 -12.2207,1.35938l-56.48828,12.64062c-20.72603,2.90492 -41.69441,-3.30869 -57.4916,-17.03661c-15.79719,-13.72792 -24.87482,-33.62462 -24.88926,-54.55323zM51.10156,208.37109c-13.04829,0.39455 -23.36607,11.18588 -23.17509,24.23873c0.19098,13.05285 10.82006,23.5377 23.8743,23.55034c13.1923,-0.01739 23.88213,-10.70809 23.89844,-23.90039c-0.00031,-6.45946 -2.61522,-12.64374 -7.24904,-17.144c-4.63382,-4.50026 -10.89191,-6.93324 -17.34862,-6.74468zM461.19336,208.38086c-6.50518,-0.2704 -12.83911,2.12484 -17.53761,6.632c-4.6985,4.50717 -7.35484,10.73611 -7.35497,17.24691c0.01631,13.1923 10.70614,23.883 23.89844,23.90039c13.00571,-0.0002 23.62392,-10.39993 23.89447,-23.40282c0.27055,-13.00289 -9.90588,-23.8353 -22.90033,-24.37648zM460.19922,223.35938c3.59982,-0.00063 6.84554,2.16734 8.2236,5.49295c1.37807,3.3256 0.61708,7.15388 -1.9281,9.69961c-2.54518,2.54574 -6.37329,3.30756 -9.69919,1.93023c-3.32591,-1.37734 -5.49459,-4.62258 -5.49475,-8.2224c0.00529,-4.91259 3.98585,-8.89402 8.89844,-8.90039zM52.06055,223.36328c4.87293,0.1283 8.73594,4.15271 8.6648,9.02681c-0.07114,4.8741 -4.04996,8.78404 -8.92456,8.77007c-4.91335,-0.0053 -8.89509,-3.98704 -8.90039,-8.90039c-0.00008,-2.40559 0.97364,-4.70876 2.69931,-6.38476c1.72566,-1.67599 4.05629,-2.58205 6.46085,-2.51173zM99.66016,264.66992c-2.53264,0.00321 -4.89307,1.28271 -6.27806,3.40311c-1.38499,2.12039 -1.60796,4.79604 -0.59304,7.11642l18,41c5.9654,13.56723 19.39016,22.32214 34.21094,22.31055h57.81055c4.14214,0 7.5,-3.35786 7.5,-7.5v-0.88086c-0.04448,-36.12054 -29.30916,-65.39396 -65.42969,-65.44922zM367.13086,264.66992c-36.12892,0.04343 -65.40666,29.32031 -65.45117,65.44922v0.88086c0,4.14214 3.35786,7.5 7.5,7.5h57.82031c14.81068,-0.0047 28.22101,-8.7557 34.18945,-22.31055l18,-41c1.01479,-2.32007 0.79202,-4.99532 -0.5925,-7.11561c-1.38452,-2.12028 -3.74435,-3.40006 -6.27664,-3.40392zM457.13086,269.41016c-4.50577,-0.00054 -8.56819,2.71323 -10.29291,6.87584c-1.72472,4.16261 -0.77207,8.9543 2.41372,12.14064c3.18578,3.18634 7.9773,4.13983 12.14022,2.41584c4.16292,-1.72399 6.87739,-5.78593 6.87764,-10.2917c0.00034,-6.15217 -4.9865,-11.13989 -11.13867,-11.14062zM54.53516,269.41406c-6.08819,0.17519 -10.90703,5.20746 -10.81839,11.29752c0.08864,6.09006 5.0519,10.97995 11.14261,10.97787c6.15218,0.00035 11.13989,-4.98649 11.14063,-11.13867c0.00039,-3.0111 -1.21816,-5.89411 -3.37801,-7.99214c-2.15985,-2.09803 -5.07702,-3.23238 -8.08684,-3.14458zM111.14062,279.66992h33.72852c25.28719,0.03759 46.65146,18.76555 50,43.83008h-49.86914c-8.86141,0.00183 -16.88545,-5.2364 -20.44922,-13.34961zM367.13086,279.66992h33.71875l-13.40039,30.48047c-3.57405,8.10449 -11.59166,13.33853 -20.44922,13.34961h-49.89062c3.35375,-25.07041 24.72776,-43.79886 50.02148,-43.83008zM64.86914,308.88086c-4.50844,-0.00369 -8.5746,2.7104 -10.30052,6.8754c-1.72591,4.165 -0.77125,8.95965 2.41838,12.14591c3.18963,3.18627 7.98527,4.13588 12.14845,2.40558c4.16318,-1.7303 6.87299,-5.79932 6.86455,-10.30775c-0.0115,-6.14074 -4.99011,-11.11411 -11.13086,-11.11914zM447.61328,308.89062c-3.03032,-0.12886 -5.98217,0.98345 -8.17389,3.08007c-2.19172,2.09662 -3.43379,4.99626 -3.43939,8.02931c-0.00535,2.95642 1.16471,5.79372 3.25247,7.88697c2.08776,2.09325 4.92197,3.27077 7.87839,3.27319c6.05835,-0.00012 11.00596,-4.8418 11.13717,-10.89873c0.13121,-6.05693 -4.60209,-11.10833 -10.65475,-11.37081z"></path></g></g></svg>