<svg version="1.1" xmlns="http://www.w3.org/2000/svg" xmlns:xlink="http://www.w3.org/1999/xlink" width="48px" height="48px" viewBox="0,0,256,256"><g fill="#717171" fill-rule="nonzero" stroke="none" stroke-width="1" stroke-linecap="butt" stroke-linejoin="miter" stroke-miterlimit="10" stroke-dasharray="" stroke-dashoffset="0" font-family="none" font-weight="none" font-size="none" text-anchor="none" style="mix-blend-mode: normal"><g transform="scale(5.33333,5.33333)"><path d="M12.525,34c0.138,-1.659 0.95,-3.13 2.165,-4.132c-0.69,0.083 -1.425,0.132 -2.19,0.132c-3.307,0 -5.5,-1.505 -5.5,-2.5v-2.5h9.058c-0.355,-0.934 -0.558,-1.943 -0.558,-3c0,-0.339 0.025,-0.671 0.064,-1h-8.564c-2.206,0 -4,1.794 -4,4v2.5c0,3.645 4.173,6.5 9.5,6.5c0.008,0 0.017,0 0.025,0zM41,21h-8.564c0.039,0.329 0.064,0.661 0.064,1c0,1.057 -0.203,2.066 -0.558,3h9.058v2.5c0,0.995 -2.193,2.5 -5.5,2.5c-0.765,0 -1.498,-0.049 -2.189,-0.131c1.215,1.001 2.025,2.471 2.163,4.13c0.008,0 0.017,0 0.025,0c5.327,0 9.5,-2.855 9.5,-6.5v-2.499c0.001,-2.206 -1.793,-4 -3.999,-4zM24,28.5c-3.584,0 -6.5,-2.916 -6.5,-6.5c0,-3.584 2.916,-6.5 6.5,-6.5c3.584,0 6.5,2.916 6.5,6.5c0,3.584 -2.916,6.5 -6.5,6.5zM24,19.5c-1.379,0 -2.5,1.121 -2.5,2.5c0,1.379 1.121,2.5 2.5,2.5c1.379,0 2.5,-1.121 2.5,-2.5c0,-1.379 -1.121,-2.5 -2.5,-2.5zM24,43.5c-5.327,0 -9.5,-2.855 -9.5,-6.5v-2.5c0,-2.206 1.794,-4 4,-4h11c2.206,0 4,1.794 4,4v2.5c0,3.645 -4.173,6.5 -9.5,6.5zM18.5,34.5v2.5c0,0.995 2.193,2.5 5.5,2.5c3.307,0 5.5,-1.505 5.5,-2.5v-2.5zM13,18.5c-3.584,0 -6.5,-2.916 -6.5,-6.5c0,-3.584 2.916,-6.5 6.5,-6.5c3.584,0 6.5,2.916 6.5,6.5c0,3.584 -2.916,6.5 -6.5,6.5zM13,9.5c-1.379,0 -2.5,1.121 -2.5,2.5c0,1.379 1.121,2.5 2.5,2.5c1.379,0 2.5,-1.121 2.5,-2.5c0,-1.379 -1.121,-2.5 -2.5,-2.5zM35,18.5c-3.584,0 -6.5,-2.916 -6.5,-6.5c0,-3.584 2.916,-6.5 6.5,-6.5c3.584,0 6.5,2.916 6.5,6.5c0,3.584 -2.916,6.5 -6.5,6.5zM35,9.5c-1.379,0 -2.5,1.121 -2.5,2.5c0,1.379 1.121,2.5 2.5,2.5c1.379,0 2.5,-1.121 2.5,-2.5c0,-1.379 -1.121,-2.5 -2.5,-2.5z"></path></g></g></svg>