<svg version="1.1" xmlns="http://www.w3.org/2000/svg" xmlns:xlink="http://www.w3.org/1999/xlink" width="48px" height="48px" viewBox="0,0,256,256"><defs><radialGradient cx="24.4253" cy="20.53582" r="21.828" gradientUnits="userSpaceOnUse" id="color-1"><stop offset="0" stop-color="#ffce58"></stop><stop offset="0.629" stop-color="#ffd226"></stop><stop offset="0.75" stop-color="#fdcd23"></stop><stop offset="0.899" stop-color="#f6bd1b"></stop><stop offset="0.999" stop-color="#f0af13"></stop></radialGradient><radialGradient cx="38.57547" cy="28.2337" r="4.99671" gradientUnits="userSpaceOnUse" id="color-2"><stop offset="0.425" stop-color="#ffce58"></stop><stop offset="1" stop-color="#ffe16e" stop-opacity="0"></stop></radialGradient><radialGradient cx="29.17839" cy="38.51889" r="4.32141" gradientUnits="userSpaceOnUse" id="color-3"><stop offset="0.425" stop-color="#ffce58"></stop><stop offset="1" stop-color="#ffe16e" stop-opacity="0"></stop></radialGradient><radialGradient cx="19.16066" cy="16.36242" r="2.089" gradientUnits="userSpaceOnUse" id="color-4"><stop offset="0.425" stop-color="#ffce58"></stop><stop offset="1" stop-color="#ffe16e" stop-opacity="0"></stop></radialGradient><radialGradient cx="15.57829" cy="21.32475" r="1.9714" gradientUnits="userSpaceOnUse" id="color-5"><stop offset="0.425" stop-color="#ffce58"></stop><stop offset="1" stop-color="#ffe16e" stop-opacity="0"></stop></radialGradient><radialGradient cx="13.81542" cy="27.50524" r="1.96254" gradientUnits="userSpaceOnUse" id="color-6"><stop offset="0.425" stop-color="#ffce58"></stop><stop offset="1" stop-color="#ffe16e" stop-opacity="0"></stop></radialGradient><radialGradient cx="25.55468" cy="14.41755" r="1.84707" gradientUnits="userSpaceOnUse" id="color-7"><stop offset="0.425" stop-color="#ffce58"></stop><stop offset="1" stop-color="#ffe16e" stop-opacity="0"></stop></radialGradient><linearGradient x1="35.14694" y1="18.16851" x2="28.85158" y2="28.60474" gradientUnits="userSpaceOnUse" id="color-8"><stop offset="0" stop-color="#ffdc58" stop-opacity="0"></stop><stop offset="1" stop-color="#f5c02c"></stop></linearGradient><linearGradient x1="16.88139" y1="32.52636" x2="31.12085" y2="17.65424" gradientUnits="userSpaceOnUse" id="color-9"><stop offset="0" stop-color="#f9c41e"></stop><stop offset="0.605" stop-color="#f6c12d"></stop><stop offset="0.999" stop-color="#ffd532"></stop></linearGradient><linearGradient x1="4.248" y1="26.896" x2="10.674" y2="32.896" gradientUnits="userSpaceOnUse" id="color-10"><stop offset="0" stop-color="#f1f7fe" stop-opacity="0"></stop><stop offset="0.52" stop-color="#3c8af0"></stop><stop offset="1" stop-color="#f1f7fe" stop-opacity="0"></stop></linearGradient><linearGradient x1="0.792" y1="27.72" x2="9.814" y2="35.719" gradientUnits="userSpaceOnUse" id="color-11"><stop offset="0" stop-color="#f1f7fe" stop-opacity="0"></stop><stop offset="0.52" stop-color="#3c8af0"></stop><stop offset="1" stop-color="#f1f7fe" stop-opacity="0"></stop></linearGradient><linearGradient x1="25.38" y1="5.756" x2="30.902" y2="11.054" gradientUnits="userSpaceOnUse" id="color-12"><stop offset="0" stop-color="#f1f7fe" stop-opacity="0"></stop><stop offset="0.52" stop-color="#3c8af0"></stop><stop offset="1" stop-color="#f1f7fe" stop-opacity="0"></stop></linearGradient><linearGradient x1="25.828" y1="2.45" x2="34.221" y2="10.269" gradientUnits="userSpaceOnUse" id="color-13"><stop offset="0" stop-color="#f1f7fe" stop-opacity="0"></stop><stop offset="0.52" stop-color="#3c8af0"></stop><stop offset="1" stop-color="#f1f7fe" stop-opacity="0"></stop></linearGradient><linearGradient x1="32.27779" y1="18.56554" x2="34.20492" y2="33.25424" gradientUnits="userSpaceOnUse" id="color-14"><stop offset="0" stop-color="#ffdb53" stop-opacity="0"></stop><stop offset="0.605" stop-color="#f6c02d"></stop><stop offset="0.999" stop-color="#f2b416" stop-opacity="0.636"></stop></linearGradient></defs><g fill="none" fill-rule="nonzero" stroke="none" stroke-width="1" stroke-linecap="butt" stroke-linejoin="miter" stroke-miterlimit="10" stroke-dasharray="" stroke-dashoffset="0" font-family="none" font-weight="none" font-size="none" text-anchor="none" style="mix-blend-mode: normal"><g transform="scale(5.33333,5.33333)"><path d="M40.224,7.099c-2.299,0.943 -2.951,3.759 -3.193,6.232c0,0 -0.348,2.78 -0.632,4.024c-0.68,2.985 -2.778,1.331 -3.779,0.343c0,0 -10.411,-9.762 -10.503,-9.85c-0.747,-0.786 -1.701,-1.267 -2.553,-1.286c-0.532,-0.012 -0.992,0.154 -1.331,0.479c-0.896,0.922 -0.639,2.603 0.613,3.919l9.08,10.229c-4.786,-4.58 -12.715,-12.141 -12.774,-12.198c-1.302,-1.283 -3.016,-1.588 -3.908,-0.696c-0.002,0.002 -0.004,0.004 -0.007,0.007c-0.33,0.335 -0.503,0.793 -0.5,1.325c0.006,0.853 0.47,1.816 1.221,2.554l11.716,13.226c-3.984,-3.708 -11.504,-10.664 -11.598,-10.752c-1.316,-1.251 -3.025,-1.533 -3.908,-0.649c-0.008,0.008 -0.015,0.015 -0.023,0.023c-0.326,0.339 -0.492,0.8 -0.48,1.332c0.019,0.851 0.5,1.806 1.274,2.543l11.837,11.979c-2.514,-2.116 -8.93,-7.403 -9.006,-7.468c-1.388,-1.193 -3.109,-1.389 -3.968,-0.445c-0.312,0.353 -0.459,0.818 -0.424,1.348c0.057,0.847 0.584,1.775 1.377,2.455c0,0 7.452,7.741 8.318,8.84c0.928,1.178 1.954,2.332 3.053,3.425c2.458,2.445 5.162,4.496 7.819,5.932c2.683,1.449 6.072,0.955 8.242,-1.204l7.782,-7.755c1.919,-2.094 2.71,-5.528 2.065,-8.961c-0.039,-0.205 -3.046,-17.38 -3.046,-17.38c-0.193,-1.297 -1.551,-2.069 -2.764,-1.571z" fill="url(#color-1)"></path><path d="M33.011,28.655c0.327,4.431 3.076,7.839 6.14,7.613c3.064,-0.226 5.282,-4.002 4.954,-8.433c-0.328,-4.431 -3.076,-7.839 -6.14,-7.613c-3.064,0.226 -5.282,4.002 -4.954,8.433z" fill="url(#color-2)" opacity="0.49"></path><path d="M27.265,42.916c3.945,1.704 7.997,1.108 9.05,-1.331c1.054,-2.439 -1.29,-5.798 -5.235,-7.502c-3.945,-1.704 -7.997,-1.108 -9.05,1.331c-1.053,2.439 1.29,5.798 5.235,7.502z" fill="url(#color-3)" opacity="0.37"></path><path d="M17.47,17.992c4.025,4.24 8.044,6.961 8.975,6.077c0.931,-0.884 -1.577,-5.039 -5.602,-9.279c-4.025,-4.24 -8.044,-6.961 -8.975,-6.077c-0.932,0.884 1.577,5.038 5.602,9.279z" fill="url(#color-4)" opacity="0.58"></path><path d="M14.058,22.841c3.999,3.999 7.936,6.546 8.793,5.689c0.857,-0.857 -1.69,-4.794 -5.689,-8.793c-3.999,-3.999 -7.936,-6.546 -8.793,-5.689c-0.857,0.857 1.69,4.794 5.689,8.793z" fill="url(#color-5)" opacity="0.35"></path><path d="M12.396,29.057c3.129,2.859 6.326,4.455 7.14,3.564c0.814,-0.891 -1.063,-3.931 -4.192,-6.79c-3.129,-2.859 -6.326,-4.455 -7.14,-3.564c-0.814,0.891 1.063,3.93 4.192,6.79z" fill="url(#color-6)" opacity="0.36"></path><path d="M23.993,15.889c3.216,3.388 6.491,5.501 7.315,4.719c0.824,-0.782 -1.116,-4.162 -4.332,-7.55c-3.216,-3.388 -6.491,-5.501 -7.315,-4.719c-0.824,0.781 1.116,4.162 4.332,7.55z" fill="url(#color-7)" opacity="0.56"></path><path d="M34.664,19.954c0,0 -5.46,3.067 -7.743,11.028c-0.217,0.835 0.425,1.228 0.79,0.437c0.366,-0.79 2.731,-7.732 7.343,-10.95c0.812,-0.655 -0.39,-0.515 -0.39,-0.515z" fill="url(#color-8)"></path><path d="M31.379,17.903c0,0 -7.652,3.851 -13.899,13.972c-0.63,1.062 -0.074,1.569 0.705,0.566c0.78,-1.003 6.656,-9.825 13.405,-13.877c1.23,-0.828 -0.211,-0.661 -0.211,-0.661z" fill="url(#color-9)"></path><path d="M10.136,32.529c-0.049,0 -0.098,-0.007 -0.146,-0.022c-2.94,-0.893 -5.078,-3.099 -5.445,-5.62c-0.04,-0.273 0.149,-0.527 0.423,-0.567c0.287,-0.033 0.526,0.15 0.566,0.423c0.313,2.139 2.175,4.026 4.746,4.807c0.265,0.08 0.414,0.359 0.333,0.624c-0.065,0.216 -0.263,0.355 -0.477,0.355z" fill="url(#color-10)"></path><path d="M9.763,35.904c-0.049,0 -0.098,-0.007 -0.146,-0.022c-4.521,-1.373 -7.807,-4.752 -8.368,-8.61c-0.04,-0.273 0.149,-0.527 0.423,-0.567c0.289,-0.033 0.526,0.15 0.566,0.423c0.507,3.476 3.517,6.537 7.669,7.798c0.265,0.08 0.414,0.359 0.333,0.624c-0.065,0.215 -0.263,0.354 -0.477,0.354z" fill="url(#color-11)"></path><path d="M30.628,12.036c-0.214,0 -0.412,-0.139 -0.478,-0.355c-0.781,-2.571 -2.668,-4.435 -4.808,-4.747c-0.273,-0.04 -0.463,-0.294 -0.423,-0.567c0.039,-0.273 0.297,-0.456 0.566,-0.423c2.521,0.368 4.728,2.505 5.62,5.446c0.081,0.264 -0.068,0.543 -0.333,0.624c-0.046,0.015 -0.095,0.022 -0.144,0.022z" fill="url(#color-12)"></path><g fill="url(#color-13)"><path d="M33.937,11.724c-0.214,0 -0.412,-0.139 -0.478,-0.355c-1.261,-4.152 -4.322,-7.162 -7.798,-7.669c-0.273,-0.04 -0.463,-0.294 -0.423,-0.567c0.039,-0.273 0.295,-0.454 0.566,-0.423c3.858,0.563 7.238,3.847 8.61,8.368c0.081,0.264 -0.068,0.543 -0.333,0.624c-0.046,0.014 -0.095,0.022 -0.144,0.022z"></path></g><path d="M33.273,19.054c-0.868,1.648 -1.472,3.514 -1.748,5.465c-0.169,1.198 -0.217,2.437 -0.129,3.654c0.148,2.04 0.682,4.112 1.675,5.918c0.336,0.61 0.732,1.186 1.176,1.722c0.405,0.489 0.902,1.157 1.478,1.451c0.149,0.104 0.32,0.173 0.503,0.173c0.159,0 0.318,-0.056 0.427,-0.175c0.009,-0.01 0.018,-0.02 0.026,-0.031c0.211,-0.27 0.113,-0.698 -0.243,-0.971c-2.914,-2.296 -4.364,-6.826 -3.694,-11.567c0.275,-1.944 0.902,-3.789 1.799,-5.388z" fill="url(#color-14)"></path></g></g></svg>