<svg version="1.1" xmlns="http://www.w3.org/2000/svg" xmlns:xlink="http://www.w3.org/1999/xlink" width="128px" height="128px" viewBox="0,0,256,256"><g fill="none" fill-rule="nonzero" stroke="none" stroke-width="1" stroke-linecap="butt" stroke-linejoin="miter" stroke-miterlimit="10" stroke-dasharray="" stroke-dashoffset="0" font-family="none" font-weight="none" font-size="none" text-anchor="none" style="mix-blend-mode: normal"><g transform="scale(2,2)"><path d="M124,26c0,-5.5 -4.5,-10 -10,-10h-100c-5.5,0 -10,4.5 -10,10v78c0,5.5 4.5,10 10,10h100c5.5,0 10,-4.5 10,-10z" fill-opacity="0" fill="#ffffff"></path><circle cx="36" cy="48" r="15" fill="#e4e4e7"></circle><path d="M34,114c10.9,-39.5 42.2,-56 90,-46.4v36.4c0,5.5 -4.5,10 -10,10z" fill="#efde97"></path><path d="M80.5,114h33.5c5.5,0 10,-4.5 10,-10v-16.4c-28,-12.6 -45,11.4 -43.5,26.4z" fill="#b5a809"></path><path d="M36,66c-4.6,0 -9.2,-1.8 -12.7,-5.3c-7,-7 -7,-18.4 0,-25.5c7,-7 18.4,-7 25.5,0c7,7 7,18.4 0,25.5c-3.6,3.5 -8.2,5.3 -12.8,5.3zM36,36c-3.1,0 -6.1,1.2 -8.5,3.5c-4.7,4.7 -4.7,12.3 0,17c4.7,4.7 12.3,4.7 17,0c4.7,-4.7 4.7,-12.3 0,-17c-2.4,-2.3 -5.4,-3.5 -8.5,-3.5z" fill="#444b54"></path><path d="M123.4,70.5v0v0v0c0.2,0 0.4,0.1 0.6,0.1c1.7,0 3,-1.3 3,-3v-41.6c0,-7.2 -5.8,-13 -13,-13h-100c-7.2,0 -13,5.8 -13,13v78c0,7.2 5.8,13 13,13h100c7.2,0 13,-5.8 13,-13v-16.4c0,-1.7 -1.3,-3 -3,-3c-1.7,0 -3,1.3 -3,3v16.4c0,3.9 -3.1,7 -7,7h-76c11.5,-35.4 40.9,-49.4 85.4,-40.5zM31.8,111h-17.8c-3.9,0 -7,-3.1 -7,-7v-78c0,-3.9 3.1,-7 7,-7h100c3.9,0 7,3.1 7,7v37.9c-46.1,-8 -77.6,8.6 -89.2,47.1z" fill="#444b54"></path></g></g></svg>