<svg version="1.1" xmlns="http://www.w3.org/2000/svg" xmlns:xlink="http://www.w3.org/1999/xlink" width="30px" height="30px" viewBox="0,0,256,256"><g fill="#ffce58" fill-rule="nonzero" stroke="none" stroke-width="1" stroke-linecap="butt" stroke-linejoin="miter" stroke-miterlimit="10" stroke-dasharray="" stroke-dashoffset="0" font-family="none" font-weight="none" font-size="none" text-anchor="none" style="mix-blend-mode: normal"><g transform="scale(8.53333,8.53333)"><path d="M11,2l-0.50195,3.49023l-2.36523,4.4043c-0.697,1.297 -2.05044,2.10547 -3.52344,2.10547h-0.60937v13h2c1.281,1.281 3.01713,2 4.82813,2h10.17188c1.10457,0 2,-0.89543 2,-2v-1.05469c1.16244,-0.23728 1.99802,-1.2589 2,-2.44531c-0.00103,-0.61153 -0.22617,-1.20147 -0.63281,-1.6582c0.98028,-0.36254 1.63157,-1.29663 1.63281,-2.3418c-0.00092,-0.78758 -0.37292,-1.52868 -1.00391,-2c0.63099,-0.47132 1.00298,-1.21242 1.00391,-2c0,-1.38071 -1.11929,-2.5 -2.5,-2.5h-9.5c0,0 1,-3.266 1,-4c0,-2.251 0,-5 -3,-5z"></path></g></g></svg>