<svg version="1.1" xmlns="http://www.w3.org/2000/svg" xmlns:xlink="http://www.w3.org/1999/xlink" width="24px" height="24px" viewBox="0,0,256,256"><g fill="#ff2507" fill-rule="nonzero" stroke="none" stroke-width="1" stroke-linecap="butt" stroke-linejoin="miter" stroke-miterlimit="10" stroke-dasharray="" stroke-dashoffset="0" font-family="none" font-weight="none" font-size="none" text-anchor="none" style="mix-blend-mode: normal"><g transform="scale(10.66667,10.66667)"><path d="M12,3c-1.657,0 -3,1.343 -3,3v6c0,1.657 1.343,3 3,3c1.657,0 3,-1.343 3,-3v-6c0,-1.657 -1.343,-3 -3,-3zM5,12c0,3.5253 2.60936,6.43323 6,6.91992v3.08008h2v-3.08008c0.72415,-0.10637 1.41503,-0.31837 2.05078,-0.62695l-1.54883,-1.54883c-0.477,0.151 -0.97495,0.25586 -1.50195,0.25586c-2.761,0 -5,-2.239 -5,-5zM17.41406,15l-1.41406,1.41406l2.12109,2.12109l-2.12109,2.12109l1.41406,1.41406l2.12109,-2.12109l2.12109,2.12109l1.41406,-1.41406l-2.12109,-2.12109l2.12109,-2.12109l-1.41406,-1.41406l-2.12109,2.12109z"></path></g></g></svg>