<svg version="1.1" xmlns="http://www.w3.org/2000/svg" xmlns:xlink="http://www.w3.org/1999/xlink" width="24px" height="24px" viewBox="0,0,256,256"><g fill="#ffce58" fill-rule="nonzero" stroke="none" stroke-width="1" stroke-linecap="butt" stroke-linejoin="miter" stroke-miterlimit="10" stroke-dasharray="" stroke-dashoffset="0" font-family="none" font-weight="none" font-size="none" text-anchor="none" style="mix-blend-mode: normal"><g transform="scale(10.66667,10.66667)"><path d="M22.239,18.451l-8.797,-14.635c-0.307,-0.511 -0.846,-0.816 -1.442,-0.816c-0.596,0 -1.135,0.305 -1.441,0.815l-8.798,14.636c-0.312,0.519 -0.32,1.168 -0.022,1.695c0.297,0.527 0.858,0.854 1.464,0.854h17.595c0.605,0 1.167,-0.327 1.464,-0.854c0.298,-0.527 0.289,-1.176 -0.023,-1.695zM12.5,18h-1c-0.276,0 -0.5,-0.224 -0.5,-0.5v-1c0,-0.276 0.224,-0.5 0.5,-0.5h1c0.276,0 0.5,0.224 0.5,0.5v1c0,0.276 -0.224,0.5 -0.5,0.5zM12,14v0c-0.552,0 -1,-0.448 -1,-1v-3c0,-0.552 0.448,-1 1,-1v0c0.552,0 1,0.448 1,1v3c0,0.552 -0.448,1 -1,1z"></path></g></g></svg>