<svg version="1.1" xmlns="http://www.w3.org/2000/svg" xmlns:xlink="http://www.w3.org/1999/xlink" width="50px" height="50px" viewBox="0,0,256,256"><g fill="#717171" fill-rule="nonzero" stroke="none" stroke-width="1" stroke-linecap="butt" stroke-linejoin="miter" stroke-miterlimit="10" stroke-dasharray="" stroke-dashoffset="0" font-family="none" font-weight="none" font-size="none" text-anchor="none" style="mix-blend-mode: normal"><g transform="scale(5.12,5.12)"><path d="M24.8125,2c-0.89453,0.03906 -1.74609,0.21484 -2.40625,0.875l-19.625,19.625c-0.49609,0.49609 -0.78125,1.17188 -0.78125,1.875c0,0.70313 0.28516,1.34766 0.78125,1.84375l3.3125,3.3125c0.16797,-0.92187 0.57422,-1.76172 1.25,-2.4375l19.65625,-19.625c1.45313,-1.45703 3.37109,-1.46875 4.53125,-1.46875h10.46875v-0.84375c0,-1.74219 -1.41406,-3.15625 -3.15625,-3.15625h-13.125c-0.30078,0 -0.60937,-0.01172 -0.90625,0zM30.8125,8c-0.89453,0.03906 -1.74609,0.21484 -2.40625,0.875l-19.625,19.625c-0.49609,0.49609 -0.78125,1.17188 -0.78125,1.875c0,0.70313 0.28516,1.34766 0.78125,1.84375l15,15c0.49609,0.49609 1.14063,0.78125 1.84375,0.78125c0.70313,0 1.37891,-0.28516 1.875,-0.78125l19.625,-19.625c0.88281,-0.88281 0.87891,-2.11719 0.875,-3.3125v-1.28125c0,-2.55078 0,-9.27344 0,-11.28125v-0.5625c0,-1.74219 -1.41406,-3.15625 -3.15625,-3.15625h-13.125c-0.30078,0 -0.60937,-0.01172 -0.90625,0zM40,14c0.51172,0 1.01563,0.20313 1.40625,0.59375c0.78125,0.78125 0.78125,2.03125 0,2.8125c-0.78125,0.78125 -2.03125,0.78125 -2.8125,0c-0.78125,-0.78125 -0.78125,-2.03125 0,-2.8125c0.39063,-0.39062 0.89453,-0.59375 1.40625,-0.59375z"></path></g></g></svg>